<?xml version="1.0" standalone="no"?>
<!DOCTYPE svg PUBLIC "-//W3C//DTD SVG 20010904//EN"
 "http://www.w3.org/TR/2001/REC-SVG-20010904/DTD/svg10.dtd">
<svg version="1.0" xmlns="http://www.w3.org/2000/svg"
 width="100.000000pt" height="100.000000pt" viewBox="0 0 100.000000 100.000000"
 preserveAspectRatio="xMidYMid meet">
<metadata>
Created by potrace 1.14, written by Peter Selinger 2001-2017
</metadata>
<g transform="translate(0.000000,100.000000) scale(0.100000,-0.100000)"
fill="#000000" stroke="none">
<path d="M618 856 c-10 -7 -18 -20 -18 -29 0 -8 -6 -28 -14 -44 -30 -60 -50
-108 -47 -117 1 -4 -4 -14 -10 -22 -7 -8 -9 -17 -6 -21 4 -3 -3 -19 -14 -35
-12 -16 -19 -32 -16 -35 3 -2 -3 -21 -14 -40 -11 -19 -17 -38 -14 -43 3 -5 1
-11 -5 -15 -5 -3 -10 -15 -10 -26 0 -10 -5 -19 -10 -19 -6 0 -9 -3 -8 -7 1 -8
-1 -16 -29 -88 -28 -72 -35 -90 -50 -120 -17 -38 -9 -65 19 -60 22 5 32 12 34
23 1 7 6 23 21 59 4 10 8 23 9 28 6 31 17 55 26 55 5 0 6 4 3 10 -3 5 2 24 12
42 9 18 17 38 18 43 1 11 10 33 31 82 8 17 14 38 14 46 0 9 4 18 9 21 5 3 16
28 25 55 9 27 21 62 27 78 7 15 13 34 15 42 1 8 9 18 16 22 7 5 9 9 4 9 -5 0
-4 6 1 13 10 12 11 16 16 71 2 33 -10 41 -35 22z"/>
<path d="M310 728 c0 -6 -3 -8 -7 -4 -4 3 -24 -10 -45 -31 -21 -20 -38 -33
-38 -29 0 5 -10 -2 -23 -15 -31 -32 -120 -104 -129 -104 -3 0 -16 -11 -28 -25
l-21 -25 33 -28 c18 -15 45 -40 60 -54 15 -15 30 -24 34 -21 3 4 19 -9 36 -28
17 -19 36 -34 43 -34 8 0 23 -12 34 -26 12 -15 21 -23 21 -19 0 5 11 -1 23
-14 23 -21 25 -21 46 -3 l23 18 -27 19 c-15 11 -41 32 -57 48 -16 15 -33 27
-38 27 -5 0 -24 13 -42 30 -55 49 -66 58 -89 70 -21 12 -21 13 22 51 24 21 49
39 54 39 6 0 21 14 35 30 13 17 28 30 33 30 5 0 20 10 34 23 65 59 65 58 52
73 -14 17 -39 19 -39 2z"/>
<path d="M660 720 c0 -19 54 -83 62 -74 3 2 17 -10 33 -26 16 -17 34 -30 41
-30 7 0 23 -12 36 -27 13 -16 36 -34 51 -42 35 -19 34 -25 -8 -50 -19 -11 -35
-24 -35 -29 0 -4 -15 -16 -32 -27 -18 -10 -41 -29 -51 -42 -10 -13 -23 -23
-30 -23 -9 0 -77 -67 -77 -76 0 -2 9 -8 19 -14 20 -10 58 14 139 91 18 17 35
29 38 26 3 -2 19 10 37 27 18 17 47 42 65 56 18 14 32 30 32 35 0 6 -18 29
-40 50 -22 21 -40 35 -40 30 0 -5 -14 7 -31 26 -16 19 -34 34 -38 34 -8 0 -60
39 -102 78 -35 32 -69 36 -69 7z"/>
</g>
</svg>
